# xmcd
#
# Track frame offsets: 
#        150
#        15878
#        28258
#        40900
#        53710
#        69466
#        90349
#        104000
#        115138
#        133403
#
# Disc length: 1979 seconds
#
# Revision: 0
# Processed by: cddbd v1.5.2PL0 Copyright (c) Steve Scherf et al.
# Submitted via: ExactAudioCopy v0.99pb4
#
DISCID=8107b90a
DTITLE=Logic - Carrickfergus
DYEAR=2004
DGENRE=Country
TTITLE0=Carrickfergus
TTITLE1=Heart Over Mind
TTITLE2=Old Flames
TTITLE3=Whiskey In The Jar
TTITLE4=Danny Boy
TTITLE5=The Galway Shawl
TTITLE6=Blue Eyes Cryin' In The Rain
TTITLE7=Pretty Little Girl From Omagh
TTITLE8=Maggie
TTITLE9=After All These Years
EXTD=
EXTT0=
EXTT1=
EXTT2=
EXTT3=
EXTT4=
EXTT5=
EXTT6=
EXTT7=
EXTT8=
EXTT9=
PLAYORDER=
